# xmcd
#
# Track frame offsets:
#	187
#	12947
#	31912
#	45855
#	62110
#	78035
#	90737
#	102310
#	118035
#	129082
#	143205
#	152307
#	165005
#	184065
#	198255
#	214490
#	230307
#	243325
#	254970
#	270670
#	281767
#	295935
#
# Disc length: 4054 seconds
# Revision: 0
# Processed by: cddbd v1.5.2PL0 Copyright (c) Steve Scherf et al.
# Submitted via: dBpowerAMP V12.0
#
DISCID=280fd416
DTITLE=Cream - Disraeli Gears (MFSL)
DYEAR=1967
DGENRE=Blues-Rock
TTITLE0=Strange Brew
TTITLE1=Sunshine of Your Love
TTITLE2=World of Pain
TTITLE3=Dance the Night Away
TTITLE4=Blue Condition
TTITLE5=Tales of Brave Ulysses
TTITLE6=Swlabr
TTITLE7=We're Going Wrong
TTITLE8=Outside Woman Blues
TTITLE9=Take It Back
TTITLE10=Mother's Lament
TTITLE11=Strange Brew (Mono)
TTITLE12=Sunshine of Your Love (Mono)
TTITLE13=World of Pain (Mono)
TTITLE14=Dance the Night Away (Mono)
TTITLE15=Blue Condition (Mono)
TTITLE16=Tales of Brave Ulysses (Mono)
TTITLE17=Swlabr (Mono)
TTITLE18=We're Going Wrong (Mono)
TTITLE19=Outside Woman Blues (Mono)
TTITLE20=Take It Back (Mono)
TTITLE21=Mother's Lament (Mono)
EXTD=
EXTT0=
EXTT1=
EXTT2=
EXTT3=
EXTT4=
EXTT5=
EXTT6=
EXTT7=
EXTT8=
EXTT9=
EXTT10=
EXTT11=
EXTT12=
EXTT13=
EXTT14=
EXTT15=
EXTT16=
EXTT17=
EXTT18=
EXTT19=
EXTT20=
EXTT21=
PLAYORDER=
